<mxfile host="app.diagrams.net" modified="2023-10-17T04:44:31.255Z" agent="Mozilla/5.0 (Windows NT 10.0; Win64; x64; rv:109.0) Gecko/20100101 Firefox/118.0" etag="B4-dr13eKsBQBah2oc9L" version="22.0.4" type="github">
  <diagram name="Page-1" id="f6aaik8X05vV7EQ3Ub1C">
    <mxGraphModel dx="880" dy="397" grid="1" gridSize="10" guides="1" tooltips="1" connect="1" arrows="1" fold="1" page="1" pageScale="1" pageWidth="850" pageHeight="1100" math="0" shadow="0">
      <root>
        <mxCell id="0" />
        <mxCell id="1" parent="0" />
        <mxCell id="EULTyK32P0nrAM1QbSWC-5" style="edgeStyle=orthogonalEdgeStyle;rounded=0;orthogonalLoop=1;jettySize=auto;html=1;exitX=0.5;exitY=1;exitDx=0;exitDy=0;exitPerimeter=0;entryX=0.5;entryY=0;entryDx=0;entryDy=0;" edge="1" parent="1" source="EULTyK32P0nrAM1QbSWC-1" target="EULTyK32P0nrAM1QbSWC-2">
          <mxGeometry relative="1" as="geometry" />
        </mxCell>
        <mxCell id="EULTyK32P0nrAM1QbSWC-1" value="Mulai" style="strokeWidth=2;html=1;shape=mxgraph.flowchart.terminator;whiteSpace=wrap;" vertex="1" parent="1">
          <mxGeometry x="370" y="190" width="100" height="60" as="geometry" />
        </mxCell>
        <mxCell id="EULTyK32P0nrAM1QbSWC-14" value="" style="edgeStyle=orthogonalEdgeStyle;rounded=0;orthogonalLoop=1;jettySize=auto;html=1;" edge="1" parent="1" source="EULTyK32P0nrAM1QbSWC-2" target="EULTyK32P0nrAM1QbSWC-11">
          <mxGeometry relative="1" as="geometry" />
        </mxCell>
        <mxCell id="EULTyK32P0nrAM1QbSWC-2" value="&lt;div&gt;LO&lt;/div&gt;&lt;div&gt;Phi&lt;/div&gt;&lt;div&gt;D&lt;br&gt;&lt;/div&gt;" style="shape=parallelogram;html=1;strokeWidth=2;perimeter=parallelogramPerimeter;whiteSpace=wrap;rounded=1;arcSize=12;size=0.23;" vertex="1" parent="1">
          <mxGeometry x="370" y="290" width="100" height="50" as="geometry" />
        </mxCell>
        <mxCell id="EULTyK32P0nrAM1QbSWC-13" value="" style="edgeStyle=orthogonalEdgeStyle;rounded=0;orthogonalLoop=1;jettySize=auto;html=1;" edge="1" parent="1" source="EULTyK32P0nrAM1QbSWC-11">
          <mxGeometry relative="1" as="geometry">
            <mxPoint x="600" y="420" as="targetPoint" />
          </mxGeometry>
        </mxCell>
        <mxCell id="EULTyK32P0nrAM1QbSWC-15" value="Proses" style="edgeLabel;html=1;align=center;verticalAlign=middle;resizable=0;points=[];" vertex="1" connectable="0" parent="EULTyK32P0nrAM1QbSWC-13">
          <mxGeometry x="0.0133" y="5" relative="1" as="geometry">
            <mxPoint x="-5" y="-113" as="offset" />
          </mxGeometry>
        </mxCell>
        <mxCell id="EULTyK32P0nrAM1QbSWC-11" value="LO=Phi x D" style="rounded=0;whiteSpace=wrap;html=1;" vertex="1" parent="1">
          <mxGeometry x="540" y="285" width="120" height="60" as="geometry" />
        </mxCell>
        <mxCell id="EULTyK32P0nrAM1QbSWC-16" value="Selesai" style="strokeWidth=2;html=1;shape=mxgraph.flowchart.terminator;whiteSpace=wrap;" vertex="1" parent="1">
          <mxGeometry x="370" y="420" width="100" height="60" as="geometry" />
        </mxCell>
        <mxCell id="EULTyK32P0nrAM1QbSWC-18" value="" style="edgeStyle=orthogonalEdgeStyle;rounded=0;orthogonalLoop=1;jettySize=auto;html=1;" edge="1" parent="1" source="EULTyK32P0nrAM1QbSWC-17" target="EULTyK32P0nrAM1QbSWC-16">
          <mxGeometry relative="1" as="geometry" />
        </mxCell>
        <mxCell id="EULTyK32P0nrAM1QbSWC-17" value="LO" style="shape=parallelogram;html=1;strokeWidth=2;perimeter=parallelogramPerimeter;whiteSpace=wrap;rounded=1;arcSize=12;size=0.23;" vertex="1" parent="1">
          <mxGeometry x="550" y="420" width="100" height="60" as="geometry" />
        </mxCell>
      </root>
    </mxGraphModel>
  </diagram>
</mxfile>
